# xmcd
#
# Track frame offsets: 
#        150
#        8908
#        27151
#        39687
#        54848
#        66973
#        79526
#        91880
#        107818
#        118341
#        129590
#        145694
#        156057
#        170152
#        183645
#
# Disc length: 2541 seconds
#
# Revision: 1
# Processed by: cddbd v1.5.2PL0 Copyright (c) Steve Scherf et al.
# Submitted via: ExactAudioCopy v1.1
#
DISCID=c809eb0f
DTITLE=Misja Fitzgerald Michel - Les plus belles berceuses jazz
DYEAR=2012
DGENRE=Jazz
TTITLE0=Russian lullaby - Ella Fitzgerald
TTITLE1=Lullaby of birdland - Sarah Vaughan
TTITLE2=Once upon a summertime - Blossom Dearie
TTITLE3=Lullaby in blue - Debbie Reynolds et Eddie Fischer
TTITLE4=Dreams are made for children - Ella Fitzgerald
TTITLE5=My sleepy head (go to sleep) - Nat King Cole
TTITLE6=Over the rainbow - Judy Garland
TTITLE7=Goodnight my love - Sarah Vaughan
TTITLE8=My funny valentine - Chet Baker
TTITLE9=Hit the road to dreamland - Mel Tormé
TTITLE10=Summertime - Peggy Lee
TTITLE11=Lullaby of the leaves - June Christy
TTITLE12=Looking for a boy - Chris Connor
TTITLE13=God bless the child - Billy Hollyday
TTITLE14=Brahm's Lullaby - Frank Sinatra
EXTD=YEAR: 2012
EXTT0=
EXTT1=
EXTT2=
EXTT3=
EXTT4=
EXTT5=
EXTT6=
EXTT7=
EXTT8=
EXTT9=
EXTT10=
EXTT11=
EXTT12=
EXTT13=
EXTT14=
PLAYORDER=
